<svg class="shape-next" version="1.1" id="art" xmlns="http://www.w3.org/2000/svg" x="0" y="0" viewBox="0 0 376.1 304.2" width="140" height="120" xml:space="preserve" aria-hidden="true" focusable="false" tabindex="-1" pointer-events="none"><style type="text/css">.st0{fill:#757575}.st1{fill:#d7d7d7}.st2{fill:#64b5f6}.st3{fill:#4285f4}.st4{fill:#2269d1}.st5{fill:none}</style><g id="google-next-logo"><g id="XMLID_3_"><path id="XMLID_8_" class="st0" d="M65.4 231.5H50.6v40.3h-3.7v-40.3H32.1v-3.1h33.4v3.1z"/><path id="XMLID_65_" class="st0" d="M65.2 255.2c0-3.1.6-5.9 1.8-8.4 1.2-2.5 2.9-4.4 5.1-5.8 2.2-1.4 4.7-2.1 7.5-2.1 4.3 0 7.8 1.5 10.4 4.5 2.7 3 4 7 4 12v.7c0 3.1-.6 5.9-1.8 8.4-1.2 2.5-2.9 4.4-5.1 5.8-2.2 1.4-4.7 2-7.5 2-4.3 0-7.7-1.5-10.4-4.5s-4-7-4-12v-.6zm3.6 1c0 3.9 1 7 3 9.5s4.6 3.7 7.8 3.7 5.8-1.2 7.8-3.7 3-5.7 3-9.8v-.7c0-2.5-.5-4.7-1.4-6.8-.9-2-2.2-3.6-3.8-4.8-1.6-1.1-3.5-1.7-5.7-1.7-3.2 0-5.8 1.2-7.8 3.7s-3 5.8-3 9.8v.8z"/><path id="XMLID_68_" class="st0" d="M109 255.6l-4.1 3.9v12.3h-3.6V226h3.6v29.3l3.4-3.6 12.3-12.1h4.5l-13.7 13.6 14.9 18.6H122l-13-16.2z"/><path id="XMLID_70_" class="st0" d="M141.5 266.7l9.4-27.1h3.8L141 277.3l-.7 1.7c-1.8 3.9-4.5 5.9-8.2 5.9-.9 0-1.8-.1-2.7-.4v-2.9l1.8.2c1.7 0 3.2-.4 4.2-1.3 1.1-.9 2-2.3 2.8-4.5l1.6-4.3-12.2-32h3.9l10 27z"/><path id="XMLID_72_" class="st0" d="M157.8 255.2c0-3.1.6-5.9 1.8-8.4 1.2-2.5 2.9-4.4 5.1-5.8 2.2-1.4 4.7-2.1 7.5-2.1 4.3 0 7.8 1.5 10.4 4.5 2.7 3 4 7 4 12v.7c0 3.1-.6 5.9-1.8 8.4-1.2 2.5-2.9 4.4-5.1 5.8-2.2 1.4-4.7 2-7.5 2-4.3 0-7.7-1.5-10.4-4.5s-4-7-4-12v-.6zm3.6 1c0 3.9 1 7 3 9.5s4.6 3.7 7.8 3.7 5.8-1.2 7.8-3.7 3-5.7 3-9.8v-.7c0-2.5-.5-4.7-1.4-6.8-.9-2-2.2-3.6-3.8-4.8-1.6-1.1-3.5-1.7-5.7-1.7-3.2 0-5.8 1.2-7.8 3.7s-3 5.8-3 9.8v.8z"/></g><g id="XMLID_7_"><g id="XMLID_19_"><g id="XMLID_5_"><path id="XMLID_48_" class="st0" d="M31.3 46.4c0-8.4 7-15.2 15.4-15.2 4.6 0 7.9 1.8 10.4 4.2l-2.9 2.9c-1.8-1.7-4.2-3-7.5-3-6.1 0-10.9 4.9-10.9 11s4.8 11 10.9 11c4 0 6.2-1.6 7.7-3 1.2-1.2 2-2.9 2.3-5.2h-9.9V45h14c.1.7.2 1.6.2 2.6 0 3.1-.9 7-3.6 9.7-2.7 2.8-6.1 4.3-10.6 4.3-8.5 0-15.5-6.9-15.5-15.2z"/><path id="XMLID_45_" class="st0" d="M72.2 42c-5.4 0-9.8 4.1-9.8 9.8 0 5.6 4.4 9.8 9.8 9.8s9.8-4.2 9.8-9.8c0-5.7-4.4-9.8-9.8-9.8zm0 15.7c-3 0-5.5-2.4-5.5-5.9 0-3.5 2.6-5.9 5.5-5.9 3 0 5.5 2.4 5.5 5.9 0 3.4-2.5 5.9-5.5 5.9z"/><path id="XMLID_42_" class="st0" d="M93.6 42c-5.4 0-9.8 4.1-9.8 9.8 0 5.6 4.4 9.8 9.8 9.8s9.8-4.2 9.8-9.8c.1-5.7-4.4-9.8-9.8-9.8zm0 15.7c-3 0-5.5-2.4-5.5-5.9 0-3.5 2.6-5.9 5.5-5.9 3 0 5.5 2.4 5.5 5.9.1 3.4-2.5 5.9-5.5 5.9z"/><path id="XMLID_39_" class="st0" d="M119.9 42.6v1.6h-.1c-1-1.1-2.8-2.2-5.2-2.2-4.9 0-9.4 4.3-9.4 9.8 0 5.5 4.5 9.7 9.4 9.7 2.3 0 4.2-1 5.2-2.2h.1v1.4c0 3.7-2 5.7-5.2 5.7-2.6 0-4.3-1.9-4.9-3.5l-3.7 1.6c1.1 2.6 3.9 5.8 8.7 5.8 5 0 9.3-3 9.3-10.2V42.6h-4.2zM115 57.7c-3 0-5.4-2.5-5.4-5.9 0-3.4 2.5-6 5.4-6 2.9 0 5.2 2.5 5.2 6 0 3.4-2.3 5.9-5.2 5.9z"/><path id="XMLID_38_" class="st0" d="M127 32.2h4.3V61H127z"/><path id="XMLID_35_" class="st0" d="M143.1 57.7c-2.2 0-3.7-1-4.7-3l13.1-5.4-.4-1.1c-.8-2.2-3.3-6.2-8.4-6.2-5 0-9.2 4-9.2 9.8 0 5.5 4.2 9.8 9.7 9.8 4.5 0 7.1-2.7 8.2-4.3l-3.3-2.2c-1.3 1.5-2.8 2.6-5 2.6zm-.4-11.9c1.7 0 3.2.9 3.6 2.1l-8.7 3.6c-.1-3.8 2.9-5.7 5.1-5.7z"/></g><g id="XMLID_20_"><g id="XMLID_21_"><path id="XMLID_32_" class="st0" d="M159.1 48.2c0-7.9 6-13.9 13.8-13.9 4 0 7.4 1.6 9.7 4.3l-2.4 2.3c-1.9-2.3-4.3-3.4-7.4-3.4-5.6 0-10.3 4.1-10.3 10.6s4.7 10.6 10.3 10.6c3.3 0 6.2-1.6 8.2-3.9l2.4 2.4c-2.3 2.8-6.1 4.7-10.5 4.7-7.8.2-13.8-5.8-13.8-13.7z"/><path id="XMLID_30_" class="st0" d="M186.4 61.5V34.9h3.4v26.5h-3.4z"/><path id="XMLID_27_" class="st0" d="M211.5 52.4c0 5.5-3.9 9.7-9.3 9.7s-9.3-4.2-9.3-9.7 3.9-9.7 9.3-9.7 9.3 4.2 9.3 9.7zm-3.4 0c0-4.2-2.9-6.6-5.9-6.6s-5.9 2.4-5.9 6.6 2.9 6.6 5.9 6.6 5.9-2.5 5.9-6.6z"/><path id="XMLID_25_" class="st0" d="M227.1 61.5V59h-.1c-1 1.7-3.3 3.1-5.7 3.1-4.7 0-6.9-3.2-6.9-7.6V43.3h3.4v10.6c0 3.8 1.9 5.1 4.5 5.1 3 0 4.8-2.9 4.8-5.6v-10h3.4v18.2h-3.4z"/><path id="XMLID_22_" class="st0" d="M233.3 52.4c0-5.6 4-9.7 8.6-9.7 2.9 0 5.2 1.4 6.2 3.1h.1l-.1-2.5v-8.4h3.4v26.5h-3.3V59h-.1c-1 1.7-3.3 3.1-6.2 3.1-4.6 0-8.6-4.1-8.6-9.7zm14.9 0c0-4.2-2.7-6.6-5.8-6.6-3 0-5.8 2.5-5.8 6.6s2.7 6.6 5.8 6.6c3.1 0 5.8-2.5 5.8-6.6z"/></g></g></g><g id="XMLID_6_"><g id="XMLID_954_"><path id="XMLID_955_" class="st0" d="M199.8 173.3l-.4.7c-4.6 6.7-15.3 12.2-23.9 12.2-8.5 0-19.1-6.6-23.4-14.5l58.4-24.2-1.6-3.9c-1.6-4.3-10.9-25.9-34.8-25.9-21.9 0-38.3 17.5-38.3 40.6S153 199 176 199c18.6 0 29.4-11.2 33.2-16.1l.2-.3-8.2-7.9-1.4-1.4zm-51.1-13.8c-.2-11 4.2-17.8 7.9-21.7 4.5-4.6 10.6-7.4 16.4-7.4 9.2 0 17.4 4.3 20.1 10.6l-44.4 18.5z"/></g><path id="XMLID_952_" class="st0" d="M32.1 84.2h17.5l62.3 87.7h.6l-.6-21.6V84.2h14.4v112.5h-15l-64.8-91.9h-.6l.6 22.1v69.7H32.1V84.2z"/><path id="XMLID_882_" class="st0" d="M329.3 119.5V84.7h-13.6v34.8h-14.4v13.9h14.4v63.3h13.6v-63.3h14.6v-13.9z"/><path id="XMLID_881_" transform="rotate(-134.999 273.962 179.078)" class="st1" d="M253.4 172h41.1v14.2h-41.1z"/><path id="XMLID_880_" transform="rotate(-45.001 273.957 139.959)" class="st1" d="M253.4 132.8h41.1V147h-41.1z"/><path id="XMLID_879_" class="st2" d="M254.4 149.5l-29.1-29.1-10 10.1 29 29 10.1 10.1 10.1-10.1z"/><path id="XMLID_469_" transform="rotate(-45.001 234.835 179.08)" class="st3" d="M214.3 172h41.1v14.2h-41.1z"/><path id="XMLID_468_" class="st4" d="M239.1 164.7l5.2-5.2 10.1 10.1z"/></g></g><path id="XMLID_2_" class="st5" d="M0 0h376.1v304.2H0z"/></g></svg>