<?xml version="1.0" encoding="utf-8"?>
<!-- Generator: Adobe Illustrator 21.1.0, SVG Export Plug-In . SVG Version: 6.00 Build 0)  -->
<svg version="1.1" id="レイヤー_1" xmlns="http://www.w3.org/2000/svg" xmlns:xlink="http://www.w3.org/1999/xlink" x="0px"
	 y="0px" viewBox="0 0 881 321" style="enable-background:new 0 0 881 321;" xml:space="preserve">
<style type="text/css">
	.st0{fill:none;stroke:#000012;stroke-linecap:round;stroke-linejoin:round;stroke-miterlimit:10;}
	.st1{fill:#000012;}
</style>
<path class="st0" d="M878.5,256.5"/>
<polyline class="st0" points="326.5,241.5 453.5,241.5 453.5,255.5 530.5,255.5 530.5,242.5 769.5,242.5 769.5,257.5 880.5,256.5 
	880.5,97.5 750.5,97.5 750.5,0.5 0.5,0.5 0.5,320.5 281.5,320.5 281.5,242.5 307.5,242.5 307.5,306.5 444.5,306.5 445.5,241.5 "/>
<line class="st0" x1="283" y1="125" x2="283" y2="216"/>
<polyline class="st0" points="283.5,88.5 283.5,24.5 383.5,24.5 383.5,84.5 "/>
<line class="st0" x1="383.5" y1="99.5" x2="383.5" y2="112.5"/>
<line class="st0" x1="282.5" y1="106.5" x2="383.5" y2="106.5"/>
<polyline class="st0" points="383.5,128.5 383.5,173.5 283,173.5 "/>
<line class="st0" x1="384" y1="41" x2="391.5" y2="41"/>
<polyline class="st0" points="407.5,40.5 414.5,40.5 414.5,201.5 476.5,201.5 "/>
<polyline class="st0" points="509.5,201.5 569.5,201.5 569.5,209.5 598.5,209.5 598.5,0.2 "/>
<polyline class="st0" points="637.5,155.5 637.5,209.5 730.5,209.5 730.5,216.5 "/>
<polyline class="st0" points="751.5,216.5 794.5,216.5 794.5,257.3 "/>
<polyline class="st0" points="728.5,156.5 730.5,156.5 730.5,209.5 "/>
<line class="st0" x1="657.5" y1="156.5" x2="710.5" y2="156.5"/>
<polyline class="st0" points="690.2,209.8 690.2,176.5 671.5,176.5 671.5,156.8 "/>
<line class="st0" x1="690" y1="190.2" x2="711.5" y2="190.2"/>
<polyline class="st0" points="598.2,38.5 654.5,38.5 654.5,25.5 "/>
<line class="st0" x1="26.5" y1="228.5" x2="26.5" y2="320"/>
<polyline class="st0" points="262.5,269.5 262.5,286.5 151.5,286.5 "/>
<line class="st0" x1="414.5" y1="64.2" x2="573.5" y2="64.2"/>
<line class="st0" x1="480.3" y1="0.5" x2="480.3" y2="46.5"/>
<polyline class="st0" points="414.5,40.5 414.5,26.5 480.3,26.5 "/>
<line class="st0" x1="413.5" y1="1.5" x2="413.5" y2="7.5"/>
<line class="st0" x1="414.5" y1="26.5" x2="414.5" y2="22.5"/>
<g>
	<path class="st1" d="M85.5,231.5v12v6v35h-17v-35c0-0.6-0.4-1-1-1h-18v-17H85.5 M86.5,230.5h-38v19h19v36h19v-36v-6V230.5
		L86.5,230.5z"/>
</g>
<g>
	<path class="st1" d="M60.5,255.5v16h-16v-16H60.5 M61.5,254.5h-18v18h18V254.5L61.5,254.5z"/>
</g>
<g>
	<path class="st1" d="M243.5,243.5v14h-92v-14H243.5 M244.5,242.5h-94v16h94V242.5L244.5,242.5z"/>
</g>
<g>
	<path class="st1" d="M244.5,274.5v11h-93v-11H244.5 M245.5,273.5h-95v13h95V273.5L245.5,273.5z"/>
</g>
<g>
	<path class="st1" d="M228.5,63.5v131h-28v-131H228.5 M229.5,62.5h-30v133h30V62.5L229.5,62.5z"/>
</g>
<g>
	<path class="st1" d="M164.5,63.5v131h-29v-131H164.5 M165.5,62.5h-31v133h31V62.5L165.5,62.5z"/>
</g>
<g>
	<path class="st1" d="M99.5,63.5v131h-28v-131H99.5 M100.5,62.5h-30v133h30V62.5L100.5,62.5z"/>
</g>
<g>
	<path class="st1" d="M88.5,25.5v14h-13v-14H88.5 M89.5,24.5h-15v16h15V24.5L89.5,24.5z"/>
</g>
<g>
	<path class="st1" d="M118.5,26.5v12h-28v-12H118.5 M119.5,25.5h-30v14h30V25.5L119.5,25.5z"/>
</g>
<g>
	<path class="st1" d="M202.5,22.5v17h-17v-17H202.5 M203.5,21.5h-19v19h19V21.5L203.5,21.5z"/>
</g>
<g>
	<path class="st1" d="M183.5,26.5v11h-28v-11H183.5 M184.5,25.5h-30v13h30V25.5L184.5,25.5z"/>
</g>
<g>
	<path class="st1" d="M366.5,52.5v21h-66v-21H366.5 M367.5,51.5h-68v23h68V51.5L367.5,51.5z"/>
</g>
<g>
	<path class="st1" d="M357.5,132.5v15h-49v-15H357.5 M358.5,131.5h-51v17h51V131.5L358.5,131.5z"/>
</g>
<g>
	<path class="st1" d="M115.5,235.2l11.3,11.3l-11.3,11.3l-11.3-11.3L115.5,235.2 M115.5,233.8l-12.7,12.7l12.7,12.7l12.7-12.7
		L115.5,233.8L115.5,233.8z"/>
</g>
<g>
	<path class="st1" d="M115.5,272.2l11.3,11.3l-11.3,11.3l-11.3-11.3L115.5,272.2 M115.5,270.8l-12.7,12.7l12.7,12.7l12.7-12.7
		L115.5,270.8L115.5,270.8z"/>
</g>
<line class="st0" x1="648.4" y1="141.9" x2="637" y2="141.9"/>
<path class="st0" d="M693.5,112.3h-37.6c-9.6,0-17.7,7.2-18.8,16.8l-0.1,2.1"/>
<line class="st0" x1="637" y1="141.9" x2="637" y2="131.2"/>
<path class="st0" d="M655.9,123.7l-1.3,0.1c-3,0.5-5.7,3-6.1,6.1l-0.1,1.3"/>
<line class="st0" x1="693.5" y1="123.7" x2="655.9" y2="123.7"/>
<line class="st0" x1="648.4" y1="141.9" x2="648.4" y2="131.2"/>
<line class="st0" x1="701.1" y1="141.9" x2="712.4" y2="141.9"/>
<path class="st0" d="M712.4,131.2l-0.1-2.1c-1-8.8-7.9-15.6-16.7-16.7l-2.1-0.1"/>
<line class="st0" x1="712.4" y1="141.9" x2="712.4" y2="131.2"/>
<path class="st0" d="M701.1,131.2l-0.1-1.3c-0.6-3.1-3-5.5-6.1-6.1l-1.3-0.1"/>
<line class="st0" x1="701.1" y1="141.9" x2="701.1" y2="131.2"/>
</svg>
