<?xml version="1.0" encoding="utf-8"?>
<!-- Generator: Adobe Illustrator 21.1.0, SVG Export Plug-In . SVG Version: 6.00 Build 0)  -->
<svg version="1.1" id="レイヤー_1" xmlns="http://www.w3.org/2000/svg" xmlns:xlink="http://www.w3.org/1999/xlink" x="0px"
	 y="0px" viewBox="0 0 283.5 320.3" style="enable-background:new 0 0 283.5 320.3;" xml:space="preserve">
<style type="text/css">
	.st0{fill:#000012;}
	.st1{fill:none;stroke:#000012;stroke-linecap:round;stroke-linejoin:round;stroke-miterlimit:10;}
</style>
<g>
	<path class="st0" d="M282.5,1.1v318.3H1V1.1H282.5 M283.5,0.1H0v320.3h283.5V0.1L283.5,0.1z"/>
</g>
<line class="st1" x1="26.5" y1="228.5" x2="26.5" y2="319.9"/>
<polyline class="st1" points="262.5,269.4 262.5,286.4 151.5,286.4 "/>
<g>
	<path class="st0" d="M85.5,231.5v12v6v35h-17v-35c0-0.6-0.4-1-1-1h-18v-17H85.5 M86.5,230.5h-38v19h19v36h19v-36v-6V230.5
		L86.5,230.5z"/>
</g>
<g>
	<path class="st0" d="M60.5,255.4v16h-16v-16H60.5 M61.5,254.4h-18v18h18V254.4L61.5,254.4z"/>
</g>
<g>
	<path class="st0" d="M243.5,243.5v14h-92v-14H243.5 M244.5,242.5h-94v16h94V242.5L244.5,242.5z"/>
</g>
<g>
	<path class="st0" d="M244.5,274.4v11h-93v-11H244.5 M245.5,273.4h-95v13h95V273.4L245.5,273.4z"/>
</g>
<g>
	<path class="st0" d="M228.5,63.6v130.9h-28V63.6H228.5 M229.5,62.6h-30v132.9h30V62.6L229.5,62.6z"/>
</g>
<g>
	<path class="st0" d="M164.5,63.6v130.9h-29V63.6H164.5 M165.5,62.6h-31v132.9h31V62.6L165.5,62.6z"/>
</g>
<g>
	<path class="st0" d="M99.5,63.6v130.9h-28V63.6H99.5 M100.5,62.6h-30v132.9h30V62.6L100.5,62.6z"/>
</g>
<g>
	<path class="st0" d="M88.5,25.6v14h-13v-14H88.5 M89.5,24.6h-15v16h15V24.6L89.5,24.6z"/>
</g>
<g>
	<path class="st0" d="M118.5,26.6v12h-28v-12H118.5 M119.5,25.6h-30v14h30V25.6L119.5,25.6z"/>
</g>
<g>
	<path class="st0" d="M202.5,22.6v17h-17v-17H202.5 M203.5,21.6h-19v19h19V21.6L203.5,21.6z"/>
</g>
<g>
	<path class="st0" d="M183.5,26.6v11h-28v-11H183.5 M184.5,25.6h-30v13h30V25.6L184.5,25.6z"/>
</g>
<g>
	<path class="st0" d="M115.5,235.2l11.3,11.3l-11.3,11.3l-11.3-11.3L115.5,235.2 M115.5,233.8l-12.7,12.7l12.7,12.7l12.7-12.7
		L115.5,233.8L115.5,233.8z"/>
</g>
<g>
	<path class="st0" d="M115.5,272.1l11.3,11.3l-11.3,11.3l-11.3-11.3L115.5,272.1 M115.5,270.7l-12.7,12.7l12.7,12.7l12.7-12.7
		L115.5,270.7L115.5,270.7z"/>
</g>
</svg>
